<?xml version="1.0" encoding="UTF-8" ?>
<!DOCTYPE svg PUBLIC "-//W3C//DTD SVG 1.1//EN" "http://www.w3.org/Graphics/SVG/1.1/DTD/svg11.dtd">
<svg width="1241pt" height="338pt" viewBox="0 0 1241 338" version="1.1" xmlns="http://www.w3.org/2000/svg">
<g id="#415466ff">
<path fill="#415466" opacity="1.00" d=" M 58.91 0.00 L 273.24 0.00 C 282.74 0.92 292.67 -0.28 301.80 3.15 C 322.03 9.62 336.92 29.70 336.98 50.99 C 337.03 128.99 336.98 207.00 337.01 285.01 C 337.15 296.77 333.12 308.53 325.72 317.69 C 318.32 326.98 307.60 333.58 295.95 335.95 C 289.40 337.37 282.65 336.95 276.00 337.00 C 202.00 337.01 128.01 336.98 54.01 337.02 C 47.02 337.15 39.97 336.14 33.44 333.56 C 18.25 327.81 6.27 314.42 2.21 298.69 C 0.24 292.00 0.77 284.92 0.00 278.06 L 0.00 64.67 C 0.76 54.13 -0.26 43.07 4.08 33.12 C 10.29 17.04 25.09 4.69 42.02 1.46 C 47.58 0.37 53.30 0.67 58.91 0.00 M 236.15 12.20 C 233.65 15.01 233.64 19.06 234.60 22.50 C 201.68 22.49 168.76 22.51 135.84 22.49 C 111.01 47.23 86.23 72.01 61.49 96.84 C 61.51 169.72 61.49 242.61 61.50 315.50 C 64.50 315.50 67.50 315.50 70.50 315.50 C 70.50 318.16 70.50 320.83 70.51 323.50 C 141.50 323.50 212.50 323.50 283.50 323.50 C 283.50 225.83 283.50 128.17 283.49 30.50 C 280.83 30.50 278.16 30.50 275.50 30.51 C 275.50 27.84 275.50 25.17 275.50 22.50 C 268.49 22.50 261.49 22.49 254.48 22.51 C 253.64 18.72 253.58 14.32 250.57 11.46 C 246.79 7.35 239.53 7.80 236.15 12.20 Z" />
<path fill="#415466" opacity="1.00" d=" M 240.18 17.19 C 240.83 14.57 244.49 13.78 246.32 15.67 C 247.62 17.70 247.84 20.19 248.39 22.49 C 245.84 22.50 243.29 22.50 240.74 22.51 C 240.44 20.75 240.07 18.98 240.18 17.19 Z" />
</g>
<g id="#6bc4bbff">
<path fill="#6bc4bb" opacity="1.00" d=" M 236.15 12.20 C 239.53 7.80 246.79 7.35 250.57 11.46 C 253.58 14.32 253.64 18.72 254.48 22.51 C 256.70 33.64 258.91 44.78 261.19 55.90 C 262.33 61.33 261.69 67.56 257.77 71.78 C 252.84 77.47 243.40 78.19 237.66 73.32 C 234.38 70.87 232.82 66.89 232.25 62.96 C 230.58 52.94 228.50 42.99 226.94 32.97 C 226.09 30.74 228.46 28.29 230.68 29.20 C 232.36 29.69 232.65 31.59 232.99 33.04 C 234.93 43.38 236.60 53.77 238.65 64.08 C 239.47 69.00 245.33 71.87 249.84 70.06 C 254.35 68.61 256.37 63.48 255.48 59.07 C 253.49 46.81 250.62 34.71 248.39 22.49 C 247.84 20.19 247.62 17.70 246.32 15.67 C 244.49 13.78 240.83 14.57 240.18 17.19 C 240.07 18.98 240.44 20.75 240.74 22.51 C 242.51 31.71 244.52 40.87 246.11 50.10 C 246.79 52.04 245.12 54.27 243.04 53.96 C 240.94 53.94 240.38 51.60 240.04 49.96 C 238.20 40.82 236.53 31.63 234.60 22.50 C 233.64 19.06 233.65 15.01 236.15 12.20 Z" />
</g>
<g id="#fefefeff">
<path fill="#fefefe" opacity="1.00" d=" M 135.84 22.49 C 168.76 22.51 201.68 22.49 234.60 22.50 C 236.53 31.63 238.20 40.82 240.04 49.96 C 240.38 51.60 240.94 53.94 243.04 53.96 C 245.12 54.27 246.79 52.04 246.11 50.10 C 244.52 40.87 242.51 31.71 240.74 22.51 C 243.29 22.50 245.84 22.50 248.39 22.49 C 250.62 34.71 253.49 46.81 255.48 59.07 C 256.37 63.48 254.35 68.61 249.84 70.06 C 245.33 71.87 239.47 69.00 238.65 64.08 C 236.60 53.77 234.93 43.38 232.99 33.04 C 232.65 31.59 232.36 29.69 230.68 29.20 C 228.46 28.29 226.09 30.74 226.94 32.97 C 228.50 42.99 230.58 52.94 232.25 62.96 C 232.82 66.89 234.38 70.87 237.66 73.32 C 243.40 78.19 252.84 77.47 257.77 71.78 C 261.69 67.56 262.33 61.33 261.19 55.90 C 258.91 44.78 256.70 33.64 254.48 22.51 C 261.49 22.49 268.49 22.50 275.50 22.50 C 275.50 25.17 275.50 27.84 275.50 30.51 C 275.47 125.48 275.59 220.46 275.44 315.44 C 207.13 315.59 138.81 315.47 70.50 315.50 C 67.50 315.50 64.50 315.50 61.50 315.50 C 61.49 242.61 61.51 169.72 61.49 96.84 C 86.31 97.18 111.14 96.95 135.96 96.97 C 135.96 72.14 136.18 47.31 135.84 22.49 M 163.86 103.88 C 163.77 110.71 163.87 117.53 163.85 124.36 C 159.99 120.81 156.15 117.25 152.32 113.67 C 151.31 112.92 150.41 111.67 149.03 111.72 C 145.98 111.20 144.01 115.61 146.51 117.51 C 152.20 122.93 158.03 128.22 163.81 133.54 C 163.86 141.97 163.83 150.41 163.83 158.84 C 156.50 154.62 149.18 150.39 141.87 146.16 C 140.02 138.48 138.48 130.73 136.55 123.08 C 136.11 120.47 132.34 119.69 130.77 121.75 C 129.51 123.02 130.19 124.92 130.42 126.46 C 131.58 131.50 132.72 136.55 133.89 141.60 C 127.81 138.08 121.80 134.45 115.63 131.10 C 111.97 128.86 106.98 132.82 108.14 136.88 C 108.49 138.95 110.31 140.17 112.00 141.13 C 117.53 144.31 123.07 147.45 128.55 150.69 C 123.07 152.46 117.50 153.99 112.05 155.87 C 109.36 156.47 108.88 160.58 111.25 161.88 C 112.62 162.92 114.34 162.10 115.79 161.76 C 122.66 159.58 129.57 157.55 136.40 155.29 C 143.87 159.38 151.16 163.78 158.57 167.98 C 151.27 172.19 143.97 176.42 136.66 180.63 C 129.68 178.44 122.68 176.29 115.69 174.10 C 114.06 173.57 111.86 172.93 110.62 174.57 C 108.93 176.14 109.69 179.40 111.96 179.98 C 117.48 181.91 123.13 183.43 128.69 185.24 C 122.70 188.75 116.61 192.11 110.66 195.69 C 108.30 196.94 107.32 200.09 108.52 202.48 C 109.69 205.13 113.19 206.28 115.71 204.84 C 121.83 201.52 127.75 197.86 133.83 194.48 C 132.63 200.35 130.91 206.13 130.03 212.06 C 129.74 215.54 135.41 216.57 136.40 213.24 C 138.46 205.51 139.94 197.63 141.84 189.85 C 149.15 185.58 156.50 181.37 163.84 177.13 C 163.74 185.42 164.01 193.71 163.73 201.99 C 158.31 208.13 151.48 213.09 145.88 219.13 C 143.79 221.94 147.97 225.84 150.61 223.63 C 155.18 219.78 159.38 215.51 163.84 211.55 C 163.92 218.71 163.67 225.88 163.93 233.04 C 164.07 236.21 167.63 238.46 170.59 237.49 C 172.96 236.87 174.52 234.46 174.43 232.06 C 174.55 225.30 174.41 218.54 174.47 211.78 C 178.08 215.11 181.70 218.43 185.27 221.79 C 186.61 222.92 187.93 224.59 189.91 224.21 C 192.48 223.80 193.58 220.25 191.66 218.51 C 186.04 213.07 180.18 207.87 174.48 202.52 C 174.45 194.07 174.47 185.63 174.47 177.18 C 181.72 181.35 188.97 185.52 196.20 189.74 C 198.09 197.54 199.56 205.45 201.64 213.20 C 202.59 216.60 208.41 215.55 208.01 211.98 C 207.13 205.98 205.34 200.14 204.19 194.19 C 210.13 197.87 216.22 201.30 222.31 204.74 C 224.76 206.25 228.34 205.28 229.61 202.67 C 230.94 200.20 229.94 196.82 227.41 195.57 C 221.47 192.05 215.43 188.69 209.48 185.19 C 215.20 183.32 221.06 181.84 226.69 179.71 C 229.69 178.32 228.29 173.23 224.99 173.48 C 217.05 175.49 209.33 178.30 201.46 180.59 C 194.21 176.37 186.94 172.19 179.67 167.99 C 187.01 163.76 194.31 159.49 201.68 155.33 C 208.49 157.52 215.34 159.57 222.16 161.73 C 223.86 162.25 226.06 162.99 227.44 161.39 C 229.09 159.74 228.43 156.63 226.18 155.93 C 220.72 154.04 215.12 152.52 209.63 150.72 C 215.53 147.20 221.57 143.90 227.46 140.36 C 229.68 139.20 230.80 136.37 229.90 134.02 C 228.96 131.01 225.02 129.47 222.34 131.22 C 216.23 134.63 210.16 138.13 204.18 141.76 C 205.31 135.81 207.13 129.99 207.98 124.00 C 208.55 120.33 202.48 119.23 201.60 122.78 C 199.56 130.55 198.06 138.46 196.17 146.27 C 188.94 150.45 181.71 154.63 174.47 158.79 C 174.45 150.33 174.48 141.86 174.46 133.39 C 179.99 128.27 185.52 123.15 191.06 118.04 C 192.20 117.11 193.03 115.55 192.47 114.07 C 191.98 111.58 188.41 110.90 186.82 112.75 C 182.62 116.43 178.65 120.38 174.47 124.09 C 174.41 117.38 174.55 110.66 174.44 103.94 C 174.61 100.94 172.03 98.08 168.98 98.26 C 166.07 98.27 163.61 100.99 163.86 103.88 Z" />
</g>
<g id="#d1dce6ff">
<path fill="#d1dce6" opacity="1.00" d=" M 61.49 96.84 C 86.23 72.01 111.01 47.23 135.84 22.49 C 136.18 47.31 135.96 72.14 135.96 96.97 C 111.14 96.95 86.31 97.18 61.49 96.84 Z" />
<path fill="#d1dce6" opacity="1.00" d=" M 275.50 30.51 C 278.16 30.50 280.83 30.50 283.49 30.50 C 283.50 128.17 283.50 225.83 283.50 323.50 C 212.50 323.50 141.50 323.50 70.51 323.50 C 70.50 320.83 70.50 318.16 70.50 315.50 C 138.81 315.47 207.13 315.59 275.44 315.44 C 275.59 220.46 275.47 125.48 275.50 30.51 Z" />
</g>
<g id="#000000ff">
<path fill="#ffffff" opacity="1.00" d=" M 448.76 96.37 C 454.81 96.35 460.86 96.38 466.91 96.36 C 485.28 143.23 503.59 190.13 521.89 237.03 C 516.00 237.01 510.11 237.02 504.22 237.02 C 499.41 224.81 494.66 212.57 489.85 200.35 C 468.36 200.39 446.88 200.35 425.40 200.37 C 420.62 212.59 415.84 224.80 411.06 237.02 C 405.31 237.02 399.57 237.03 393.83 237.01 C 412.13 190.13 430.48 143.26 448.76 96.37 M 457.61 115.23 C 449.84 138.95 440.21 162.00 431.28 185.29 C 448.85 185.29 466.42 185.28 483.99 185.30 C 475.08 161.99 465.47 138.93 457.61 115.23 Z" />
<path fill="#ffffff" opacity="1.00" d=" M 929.13 96.35 C 945.44 96.42 961.75 96.33 978.06 96.40 C 988.19 96.51 998.68 98.12 1007.45 103.51 C 1016.86 109.17 1023.38 119.20 1025.04 130.02 C 1026.65 140.48 1025.57 151.79 1019.96 160.96 C 1015.75 168.00 1009.18 173.53 1001.58 176.58 C 993.83 179.78 985.36 180.71 977.04 180.73 C 966.56 180.78 956.08 180.77 945.61 180.78 C 945.60 199.52 945.59 218.26 945.61 237.00 C 940.11 237.04 934.62 237.01 929.14 237.02 C 929.13 190.13 929.14 143.24 929.13 96.35 M 945.60 111.44 C 945.60 129.52 945.60 147.60 945.60 165.69 C 956.41 165.71 967.22 165.77 978.03 165.71 C 985.31 165.67 992.94 164.31 998.90 159.87 C 1012.29 150.02 1012.29 126.96 998.83 117.18 C 992.87 112.81 985.29 111.48 978.05 111.40 C 967.23 111.36 956.42 111.45 945.60 111.44 Z" />
<path fill="#ffffff" opacity="1.00" d=" M 1224.16 96.35 C 1229.35 96.36 1234.53 96.35 1239.72 96.36 C 1239.74 143.24 1239.72 190.12 1239.73 237.00 C 1235.04 237.03 1230.36 237.03 1225.68 236.99 C 1225.40 232.68 1225.02 228.38 1224.86 224.07 C 1208.54 242.00 1178.16 243.94 1159.65 228.33 C 1137.46 210.22 1136.86 172.18 1158.22 153.19 C 1176.22 136.55 1207.13 137.71 1224.10 155.30 C 1224.12 135.65 1224.19 116.00 1224.16 96.35 M 1182.38 156.59 C 1177.37 157.92 1172.82 160.65 1169.06 164.18 C 1158.67 173.93 1156.18 190.03 1160.74 203.18 C 1164.09 212.59 1171.79 220.50 1181.43 223.39 C 1191.64 226.37 1203.50 224.78 1211.76 217.80 C 1222.21 209.50 1226.05 194.99 1223.47 182.21 C 1221.65 172.38 1215.24 163.44 1206.31 158.86 C 1198.99 155.13 1190.27 154.57 1182.38 156.59 Z" />
<path fill="#ffffff" opacity="1.00" d=" M 786.30 97.27 C 792.30 94.52 800.50 98.21 801.38 105.02 C 802.77 110.99 798.22 117.52 792.01 117.84 C 786.81 118.66 781.44 115.02 780.35 109.86 C 779.11 104.96 781.46 99.19 786.30 97.27 Z" />
<path fill="#ffffff" opacity="1.00" d=" M 718.57 119.78 C 723.74 119.78 728.91 119.77 734.08 119.79 C 734.10 127.59 734.08 135.40 734.10 143.21 C 742.60 143.22 751.11 143.21 759.62 143.21 C 759.60 147.94 759.61 152.67 759.61 157.40 C 751.10 157.39 742.60 157.40 734.09 157.39 C 734.07 173.94 734.08 190.50 734.08 207.05 C 734.07 212.49 735.06 218.79 739.86 222.13 C 745.66 226.01 753.35 225.20 759.63 222.93 C 759.59 227.42 759.61 231.91 759.61 236.41 C 750.20 239.89 738.99 240.06 730.19 234.85 C 722.13 229.88 718.88 220.02 718.69 210.98 C 718.55 193.12 718.61 175.26 718.57 157.40 C 713.41 157.39 708.25 157.39 703.10 157.40 C 703.09 152.67 703.10 147.93 703.09 143.20 C 708.25 143.22 713.41 143.20 718.57 143.22 C 718.58 135.41 718.56 127.59 718.57 119.78 Z" />
<path fill="#ffffff" opacity="1.00" d=" M 570.58 143.55 C 577.48 140.90 585.08 141.07 592.29 142.14 C 591.54 146.93 590.81 151.72 590.03 156.51 C 581.82 154.58 572.31 155.01 565.54 160.56 C 557.58 167.21 554.21 177.92 554.22 188.02 C 554.19 204.34 554.26 220.67 554.24 237.00 C 549.05 237.04 543.86 237.02 538.67 237.01 C 538.66 205.75 538.68 174.48 538.67 143.21 C 543.35 143.21 548.04 143.22 552.72 143.22 C 553.02 148.09 553.49 152.94 553.62 157.81 C 557.86 151.67 563.52 146.26 570.58 143.55 Z" />
<path fill="#ffffff" opacity="1.00" d=" M 616.37 154.34 C 634.87 136.56 667.25 137.24 685.42 155.17 C 681.79 158.74 678.19 162.35 674.59 165.94 C 663.56 153.37 642.43 151.82 629.73 162.69 C 613.26 176.06 613.49 204.68 630.08 217.87 C 642.86 228.48 663.64 226.66 674.63 214.28 C 678.22 217.86 681.83 221.44 685.43 225.03 C 667.24 243.09 634.67 243.71 616.21 225.76 C 596.64 207.41 596.71 172.58 616.37 154.34 Z" />
<path fill="#ffffff" opacity="1.00" d=" M 847.69 146.64 C 866.33 137.31 890.81 140.42 905.83 155.17 C 902.21 158.74 898.62 162.35 895.01 165.94 C 883.91 153.30 862.65 151.82 849.94 162.83 C 833.75 176.25 833.93 204.51 850.31 217.72 C 863.04 228.46 883.97 226.76 894.96 214.30 C 898.59 217.86 902.21 221.43 905.82 225.02 C 896.12 234.53 882.43 239.45 868.91 238.84 C 854.32 238.67 839.89 231.59 831.31 219.71 C 822.26 207.59 820.08 191.28 823.64 176.80 C 826.82 163.90 835.81 152.61 847.69 146.64 Z" />
<path fill="#ffffff" opacity="1.00" d=" M 1047.93 150.54 C 1058.14 145.19 1069.37 141.22 1081.03 141.40 C 1090.85 141.21 1101.07 143.93 1108.50 150.60 C 1116.85 157.88 1120.97 169.08 1121.03 180.00 C 1121.17 199.01 1121.06 218.01 1121.09 237.01 C 1116.42 237.02 1111.75 237.02 1107.08 237.02 C 1106.77 232.38 1106.43 227.75 1106.28 223.10 C 1101.34 230.89 1093.01 236.30 1083.98 237.99 C 1076.43 239.46 1068.48 239.13 1061.14 236.82 C 1052.03 233.89 1043.99 226.64 1041.59 217.19 C 1039.54 208.93 1040.45 199.53 1045.68 192.59 C 1050.89 185.51 1059.23 181.41 1067.69 179.69 C 1080.31 177.18 1093.44 178.56 1105.72 182.17 C 1105.68 175.06 1104.06 167.40 1098.74 162.31 C 1093.39 156.91 1085.45 155.07 1078.06 155.51 C 1069.33 155.91 1061.07 159.31 1053.54 163.54 C 1051.71 159.18 1049.77 154.88 1047.93 150.54 M 1060.80 198.78 C 1055.03 203.98 1055.08 214.10 1060.74 219.37 C 1065.27 223.80 1071.94 225.06 1078.08 224.76 C 1087.18 224.51 1096.26 220.05 1101.43 212.44 C 1104.84 207.79 1105.85 201.90 1105.68 196.25 C 1096.80 193.41 1087.41 192.03 1078.10 192.62 C 1071.96 193.10 1065.50 194.55 1060.80 198.78 Z" />
<path fill="#ffffff" opacity="1.00" d=" M 783.01 143.21 C 788.20 143.21 793.40 143.21 798.61 143.22 C 798.61 174.48 798.61 205.74 798.61 237.00 C 793.40 237.03 788.20 237.02 783.00 237.02 C 783.00 205.75 782.99 174.48 783.01 143.21 Z" />
</g>
<g id="#29b5e8ff">
<path fill="#29b5e8" opacity="1.00" d=" M 163.86 103.88 C 163.61 100.99 166.07 98.27 168.98 98.26 C 172.03 98.08 174.61 100.94 174.44 103.94 C 174.55 110.66 174.41 117.38 174.47 124.09 C 178.65 120.38 182.62 116.43 186.82 112.75 C 188.41 110.90 191.98 111.58 192.47 114.07 C 193.03 115.55 192.20 117.11 191.06 118.04 C 185.52 123.15 179.99 128.27 174.46 133.39 C 174.48 141.86 174.45 150.33 174.47 158.79 C 181.71 154.63 188.94 150.45 196.17 146.27 C 198.06 138.46 199.56 130.55 201.60 122.78 C 202.48 119.23 208.55 120.33 207.98 124.00 C 207.13 129.99 205.31 135.81 204.18 141.76 C 210.16 138.13 216.23 134.63 222.34 131.22 C 225.02 129.47 228.96 131.01 229.90 134.02 C 230.80 136.37 229.68 139.20 227.46 140.36 C 221.57 143.90 215.53 147.20 209.63 150.72 C 215.12 152.52 220.72 154.04 226.18 155.93 C 228.43 156.63 229.09 159.74 227.44 161.39 C 226.06 162.99 223.86 162.25 222.16 161.73 C 215.34 159.57 208.49 157.52 201.68 155.33 C 194.31 159.49 187.01 163.76 179.67 167.99 C 186.94 172.19 194.21 176.37 201.46 180.59 C 209.33 178.30 217.05 175.49 224.99 173.48 C 228.29 173.23 229.69 178.32 226.69 179.71 C 221.06 181.84 215.20 183.32 209.48 185.19 C 215.43 188.69 221.47 192.05 227.41 195.57 C 229.94 196.82 230.94 200.20 229.61 202.67 C 228.34 205.28 224.76 206.25 222.31 204.74 C 216.22 201.30 210.13 197.87 204.19 194.19 C 205.34 200.14 207.13 205.98 208.01 211.98 C 208.41 215.55 202.59 216.60 201.64 213.20 C 199.56 205.45 198.09 197.54 196.20 189.74 C 188.97 185.52 181.72 181.35 174.47 177.18 C 174.47 185.63 174.45 194.07 174.48 202.52 C 180.18 207.87 186.04 213.07 191.66 218.51 C 193.58 220.25 192.48 223.80 189.91 224.21 C 187.93 224.59 186.61 222.92 185.27 221.79 C 181.70 218.43 178.08 215.11 174.47 211.78 C 174.41 218.54 174.55 225.30 174.43 232.06 C 174.52 234.46 172.96 236.87 170.59 237.49 C 167.63 238.46 164.07 236.21 163.93 233.04 C 163.67 225.88 163.92 218.71 163.84 211.55 C 159.38 215.51 155.18 219.78 150.61 223.63 C 147.97 225.84 143.79 221.94 145.88 219.13 C 151.48 213.09 158.31 208.13 163.73 201.99 C 164.01 193.71 163.74 185.42 163.84 177.13 C 156.50 181.37 149.15 185.58 141.84 189.85 C 139.94 197.63 138.46 205.51 136.40 213.24 C 135.41 216.57 129.74 215.54 130.03 212.06 C 130.91 206.13 132.63 200.35 133.83 194.48 C 127.75 197.86 121.83 201.52 115.71 204.84 C 113.19 206.28 109.69 205.13 108.52 202.48 C 107.32 200.09 108.30 196.94 110.66 195.69 C 116.61 192.11 122.70 188.75 128.69 185.24 C 123.13 183.43 117.48 181.91 111.96 179.98 C 109.69 179.40 108.93 176.14 110.62 174.57 C 111.86 172.93 114.06 173.57 115.69 174.10 C 122.68 176.29 129.68 178.44 136.66 180.63 C 143.97 176.42 151.27 172.19 158.57 167.98 C 151.16 163.78 143.87 159.38 136.40 155.29 C 129.57 157.55 122.66 159.58 115.79 161.76 C 114.34 162.10 112.62 162.92 111.25 161.88 C 108.88 160.58 109.36 156.47 112.05 155.87 C 117.50 153.99 123.07 152.46 128.55 150.69 C 123.07 147.45 117.53 144.31 112.00 141.13 C 110.31 140.17 108.49 138.95 108.14 136.88 C 106.98 132.82 111.97 128.86 115.63 131.10 C 121.80 134.45 127.81 138.08 133.89 141.60 C 132.72 136.55 131.58 131.50 130.42 126.46 C 130.19 124.92 129.51 123.02 130.77 121.75 C 132.34 119.69 136.11 120.47 136.55 123.08 C 138.48 130.73 140.02 138.48 141.87 146.16 C 149.18 150.39 156.50 154.62 163.83 158.84 C 163.83 150.41 163.86 141.97 163.81 133.54 C 158.03 128.22 152.20 122.93 146.51 117.51 C 144.01 115.61 145.98 111.20 149.03 111.72 C 150.41 111.67 151.31 112.92 152.32 113.67 C 156.15 117.25 159.99 120.81 163.85 124.36 C 163.87 117.53 163.77 110.71 163.86 103.88 Z" />
</g>
</svg>
