<?xml version="1.0" encoding="UTF-8" ?>
<!DOCTYPE svg PUBLIC "-//W3C//DTD SVG 1.1//EN" "http://www.w3.org/Graphics/SVG/1.1/DTD/svg11.dtd">
<svg width="848pt" height="531pt" viewBox="0 0 848 531" version="1.1" xmlns="http://www.w3.org/2000/svg">
<g id="#415466ff">
<path fill="#415466" opacity="1.00" d=" M 314.66 0.00 L 527.10 0.00 C 535.68 1.08 544.60 -0.31 553.02 2.17 C 570.49 6.58 584.99 20.86 589.65 38.27 C 592.03 46.29 591.46 54.71 591.50 62.95 C 591.51 136.99 591.49 211.02 591.51 285.05 C 591.58 294.51 589.05 303.99 584.13 312.08 C 577.08 323.86 565.15 332.60 551.76 335.66 C 544.65 337.43 537.28 336.95 530.03 337.00 C 457.34 337.01 384.66 336.99 311.97 337.01 C 304.50 337.18 296.89 336.81 289.80 334.24 C 269.57 327.61 254.90 307.34 255.01 286.04 C 255.00 207.68 254.97 129.31 255.03 50.94 C 255.14 30.49 268.86 11.07 287.99 3.93 C 296.42 0.37 305.71 0.60 314.66 0.00 M 491.89 10.91 C 488.45 13.66 487.93 18.50 489.09 22.51 C 456.19 22.46 423.29 22.57 390.39 22.45 C 365.49 47.14 340.72 71.97 315.98 96.83 C 316.03 169.72 315.99 242.61 316.00 315.49 C 319.01 315.50 322.02 315.50 325.04 315.51 C 325.00 318.17 324.99 320.83 324.99 323.49 C 395.99 323.51 467.00 323.51 538.00 323.49 C 538.00 225.83 538.00 128.16 538.00 30.50 C 535.33 30.50 532.66 30.50 530.00 30.52 C 530.00 27.84 529.99 25.16 529.98 22.48 C 522.99 22.51 516.00 22.50 509.02 22.49 C 508.21 18.79 508.08 14.55 505.28 11.67 C 501.96 7.91 495.62 7.58 491.89 10.91 Z" />
<path fill="#415466" opacity="1.00" d=" M 494.74 16.99 C 495.54 14.41 499.37 13.86 501.07 15.85 C 502.12 17.91 502.34 20.26 502.85 22.49 C 500.32 22.49 497.80 22.50 495.28 22.50 C 495.01 20.68 494.56 18.84 494.74 16.99 Z" />
</g>
<g id="#6ac5bcff">
<path fill="#6ac5bc" opacity="1.00" d=" M 491.89 10.91 C 495.62 7.58 501.96 7.91 505.28 11.67 C 508.08 14.55 508.21 18.79 509.02 22.49 C 511.14 33.72 513.49 44.89 515.72 56.09 C 516.92 61.81 515.96 68.43 511.52 72.57 C 506.15 77.82 496.73 77.91 491.35 72.63 C 487.77 69.61 487.00 64.78 486.29 60.42 C 484.79 51.21 482.80 42.08 481.43 32.85 C 480.55 30.48 483.42 28.02 485.58 29.40 C 487.30 30.23 487.24 32.40 487.70 34.00 C 489.32 43.46 491.11 52.90 492.74 62.36 C 493.17 64.79 493.96 67.40 496.14 68.85 C 499.94 71.86 506.13 70.81 508.67 66.66 C 510.98 63.19 509.99 58.79 509.37 54.95 C 507.16 44.14 505.00 33.31 502.85 22.49 C 502.34 20.26 502.12 17.91 501.07 15.85 C 499.37 13.86 495.54 14.41 494.74 16.99 C 494.56 18.84 495.01 20.68 495.28 22.50 C 496.97 31.74 499.07 40.90 500.62 50.16 C 501.33 52.25 499.34 54.49 497.19 53.91 C 495.26 53.68 494.93 51.41 494.52 49.90 C 492.67 40.77 491.05 31.60 489.09 22.51 C 487.93 18.50 488.45 13.66 491.89 10.91 Z" />
</g>
<g id="#fefefeff">
<path fill="#fefefe" opacity="1.00" d=" M 495.28 22.50 C 497.80 22.50 500.32 22.49 502.85 22.49 C 505.00 33.31 507.16 44.14 509.37 54.95 C 509.99 58.79 510.98 63.19 508.67 66.66 C 506.13 70.81 499.94 71.86 496.14 68.85 C 493.96 67.40 493.17 64.79 492.74 62.36 C 491.11 52.90 489.32 43.46 487.70 34.00 C 487.24 32.40 487.30 30.23 485.58 29.40 C 483.42 28.02 480.55 30.48 481.43 32.85 C 482.80 42.08 484.79 51.21 486.29 60.42 C 487.00 64.78 487.77 69.61 491.35 72.63 C 496.73 77.91 506.15 77.82 511.52 72.57 C 515.96 68.43 516.92 61.81 515.72 56.09 C 513.49 44.89 511.14 33.72 509.02 22.49 C 516.00 22.50 522.99 22.51 529.98 22.48 C 529.99 25.16 530.00 27.84 530.00 30.52 C 529.94 125.51 530.10 220.50 529.92 315.49 C 461.63 315.53 393.33 315.49 325.04 315.51 C 322.02 315.50 319.01 315.50 316.00 315.49 C 315.99 242.61 316.03 169.72 315.98 96.83 C 340.81 97.17 365.65 96.99 390.49 96.93 C 390.47 72.10 390.64 47.27 390.39 22.45 C 423.29 22.57 456.19 22.46 489.09 22.51 C 491.05 31.60 492.67 40.77 494.52 49.90 C 494.93 51.41 495.26 53.68 497.19 53.91 C 499.34 54.49 501.33 52.25 500.62 50.16 C 499.07 40.90 496.97 31.74 495.28 22.50 M 418.42 103.09 C 418.16 110.17 418.45 117.25 418.31 124.32 C 413.95 120.42 409.82 116.27 405.39 112.48 C 403.67 110.85 400.55 111.85 400.01 114.12 C 399.25 116.03 401.01 117.57 402.24 118.76 C 406.94 123.04 411.58 127.39 416.29 131.67 C 417.08 132.61 418.54 133.39 418.32 134.83 C 418.38 142.79 418.33 150.75 418.31 158.71 C 410.90 154.72 403.74 150.31 396.40 146.21 C 394.50 138.50 393.00 130.69 391.02 123.00 C 390.35 119.33 384.21 120.14 384.53 123.87 C 385.43 129.81 387.16 135.61 388.33 141.51 C 382.40 138.17 376.58 134.63 370.63 131.34 C 368.38 129.83 365.15 130.40 363.58 132.60 C 361.75 134.86 362.35 138.53 364.83 140.05 C 370.78 143.78 377.03 147.03 383.03 150.70 C 377.37 152.59 371.55 154.01 365.97 156.13 C 362.73 157.47 364.40 163.19 367.95 162.33 C 375.73 160.26 383.35 157.59 391.08 155.30 C 398.36 159.54 405.71 163.64 412.92 167.99 C 405.74 172.32 398.41 176.40 391.16 180.63 C 383.40 178.29 375.73 175.63 367.90 173.55 C 364.31 172.77 362.72 178.60 366.09 179.81 C 371.70 181.88 377.51 183.37 383.18 185.24 C 377.67 188.42 372.17 191.61 366.64 194.76 C 364.96 195.74 363.07 196.88 362.67 198.96 C 361.44 202.95 366.14 206.97 369.88 204.99 C 376.14 201.70 382.12 197.90 388.32 194.48 C 387.14 200.38 385.40 206.16 384.52 212.11 C 384.30 215.71 390.21 216.51 390.98 213.01 C 393.00 205.32 394.45 197.48 396.39 189.77 C 403.74 185.65 410.92 181.26 418.32 177.24 C 418.35 185.58 418.32 193.92 418.34 202.26 C 412.52 207.83 406.38 213.07 400.70 218.76 C 398.12 221.22 401.89 225.80 404.80 223.81 C 409.56 220.04 413.76 215.58 418.31 211.55 C 418.40 218.38 418.25 225.22 418.35 232.05 C 418.19 234.55 419.88 237.06 422.39 237.55 C 425.35 238.37 428.61 236.06 428.85 233.00 C 429.22 225.92 428.73 218.81 429.10 211.72 C 433.37 215.83 437.59 220.02 442.18 223.76 C 445.15 225.85 448.85 221.29 446.36 218.75 C 440.75 213.17 434.75 207.98 428.99 202.55 C 428.97 194.12 428.91 185.68 429.03 177.25 C 436.27 181.32 443.42 185.57 450.65 189.66 C 452.55 197.36 454.04 205.17 456.03 212.86 C 456.65 216.52 462.82 215.78 462.50 212.07 C 461.67 206.10 459.86 200.31 458.74 194.39 C 464.68 197.71 470.51 201.24 476.45 204.56 C 478.65 206.00 481.87 205.69 483.52 203.56 C 485.44 201.27 484.96 197.28 482.25 195.81 C 476.31 192.12 470.05 188.94 464.15 185.16 C 469.73 183.30 475.46 181.85 480.98 179.81 C 484.40 178.53 482.66 172.68 479.06 173.58 C 471.30 175.64 463.71 178.27 456.03 180.60 C 448.75 176.41 441.47 172.24 434.24 167.99 C 441.48 163.71 448.81 159.56 456.08 155.34 C 463.74 157.59 471.29 160.26 479.01 162.30 C 482.63 163.31 484.43 157.36 480.98 156.08 C 475.46 154.02 469.72 152.60 464.14 150.72 C 470.30 146.95 476.76 143.68 482.80 139.74 C 487.22 136.62 483.20 128.83 478.07 130.71 C 471.40 133.92 465.22 138.09 458.71 141.61 C 459.86 135.70 461.61 129.91 462.50 123.96 C 463.00 120.08 456.55 119.33 456.00 123.12 C 454.03 130.81 452.52 138.62 450.64 146.33 C 443.41 150.39 436.29 154.64 429.07 158.71 C 428.85 150.25 429.00 141.80 428.98 133.35 C 434.73 127.97 440.64 122.75 446.28 117.26 C 448.87 114.77 445.33 110.12 442.26 112.10 C 437.55 115.76 433.48 120.18 428.98 124.10 C 428.90 117.39 429.06 110.68 428.94 103.97 C 429.03 101.47 427.34 98.92 424.83 98.40 C 421.86 97.60 418.47 99.97 418.42 103.09 Z" />
</g>
<g id="#d1dce6ff">
<path fill="#d1dce6" opacity="1.00" d=" M 315.98 96.83 C 340.72 71.97 365.49 47.14 390.39 22.45 C 390.64 47.27 390.47 72.10 390.49 96.93 C 365.65 96.99 340.81 97.17 315.98 96.83 Z" />
<path fill="#d1dce6" opacity="1.00" d=" M 530.00 30.52 C 532.66 30.50 535.33 30.50 538.00 30.50 C 538.00 128.16 538.00 225.83 538.00 323.49 C 467.00 323.51 395.99 323.51 324.99 323.49 C 324.99 320.83 325.00 318.17 325.04 315.51 C 393.33 315.49 461.63 315.53 529.92 315.49 C 530.10 220.50 529.94 125.51 530.00 30.52 Z" />
</g>
<g id="#29b5e8ff">
<path fill="#29b5e8" opacity="1.00" d=" M 418.42 103.09 C 418.47 99.97 421.86 97.60 424.83 98.40 C 427.34 98.92 429.03 101.47 428.94 103.97 C 429.06 110.68 428.90 117.39 428.98 124.10 C 433.48 120.18 437.55 115.76 442.26 112.10 C 445.33 110.12 448.87 114.77 446.28 117.26 C 440.64 122.75 434.73 127.97 428.98 133.35 C 429.00 141.80 428.85 150.25 429.07 158.71 C 436.29 154.64 443.41 150.39 450.64 146.33 C 452.52 138.62 454.03 130.81 456.00 123.12 C 456.55 119.33 463.00 120.08 462.50 123.96 C 461.61 129.91 459.86 135.70 458.71 141.61 C 465.22 138.09 471.40 133.92 478.07 130.71 C 483.20 128.83 487.22 136.62 482.80 139.74 C 476.76 143.68 470.30 146.95 464.14 150.72 C 469.72 152.60 475.46 154.02 480.98 156.08 C 484.43 157.36 482.63 163.31 479.01 162.30 C 471.29 160.26 463.74 157.59 456.08 155.34 C 448.81 159.56 441.48 163.71 434.24 167.99 C 441.47 172.24 448.75 176.41 456.03 180.60 C 463.71 178.27 471.30 175.64 479.06 173.58 C 482.66 172.68 484.40 178.53 480.98 179.81 C 475.46 181.85 469.73 183.30 464.15 185.16 C 470.05 188.94 476.31 192.12 482.25 195.81 C 484.96 197.28 485.44 201.27 483.52 203.56 C 481.87 205.69 478.65 206.00 476.45 204.56 C 470.51 201.24 464.68 197.71 458.74 194.39 C 459.86 200.31 461.67 206.10 462.50 212.07 C 462.82 215.78 456.65 216.52 456.03 212.86 C 454.04 205.17 452.55 197.36 450.65 189.66 C 443.42 185.57 436.27 181.32 429.03 177.25 C 428.91 185.68 428.97 194.12 428.99 202.55 C 434.75 207.98 440.75 213.17 446.36 218.75 C 448.85 221.29 445.15 225.85 442.18 223.76 C 437.59 220.02 433.37 215.83 429.10 211.72 C 428.73 218.81 429.22 225.92 428.85 233.00 C 428.61 236.06 425.35 238.37 422.39 237.55 C 419.88 237.06 418.19 234.55 418.35 232.05 C 418.25 225.22 418.40 218.38 418.31 211.55 C 413.76 215.58 409.56 220.04 404.80 223.81 C 401.89 225.80 398.12 221.22 400.70 218.76 C 406.38 213.07 412.52 207.83 418.34 202.26 C 418.32 193.92 418.35 185.58 418.32 177.24 C 410.92 181.26 403.74 185.65 396.39 189.77 C 394.45 197.48 393.00 205.32 390.98 213.01 C 390.21 216.51 384.30 215.71 384.52 212.11 C 385.40 206.16 387.14 200.38 388.32 194.48 C 382.12 197.90 376.14 201.70 369.88 204.99 C 366.14 206.97 361.44 202.95 362.67 198.96 C 363.07 196.88 364.96 195.74 366.64 194.76 C 372.17 191.61 377.67 188.42 383.18 185.24 C 377.51 183.37 371.70 181.88 366.09 179.81 C 362.72 178.60 364.31 172.77 367.90 173.55 C 375.73 175.63 383.40 178.29 391.16 180.63 C 398.41 176.40 405.74 172.32 412.92 167.99 C 405.71 163.64 398.36 159.54 391.08 155.30 C 383.35 157.59 375.73 160.26 367.95 162.33 C 364.40 163.19 362.73 157.47 365.97 156.13 C 371.55 154.01 377.37 152.59 383.03 150.70 C 377.03 147.03 370.78 143.78 364.83 140.05 C 362.35 138.53 361.75 134.86 363.58 132.60 C 365.15 130.40 368.38 129.83 370.63 131.34 C 376.58 134.63 382.40 138.17 388.33 141.51 C 387.16 135.61 385.43 129.81 384.53 123.87 C 384.21 120.14 390.35 119.33 391.02 123.00 C 393.00 130.69 394.50 138.50 396.40 146.21 C 403.74 150.31 410.90 154.72 418.31 158.71 C 418.33 150.75 418.38 142.79 418.32 134.83 C 418.54 133.39 417.08 132.61 416.29 131.67 C 411.58 127.39 406.94 123.04 402.24 118.76 C 401.01 117.57 399.25 116.03 400.01 114.12 C 400.55 111.85 403.67 110.85 405.39 112.48 C 409.82 116.27 413.95 120.42 418.31 124.32 C 418.45 117.25 418.16 110.17 418.42 103.09 Z" />
</g>
<g id="#000000ff">
<path fill="#ffffff" opacity="1.00" d=" M 55.76 387.38 C 61.81 387.35 67.86 387.38 73.91 387.36 C 86.17 418.60 98.36 449.87 110.58 481.13 C 116.59 496.78 122.97 512.28 128.73 528.01 C 122.89 528.02 117.05 528.02 111.21 528.01 C 106.42 515.79 101.65 503.56 96.85 491.35 C 75.36 491.39 53.88 491.35 32.40 491.37 C 27.63 503.59 22.84 515.80 18.06 528.01 C 12.32 528.02 6.59 528.03 0.86 528.00 C 19.10 481.10 37.50 434.26 55.76 387.38 M 64.61 406.31 C 56.89 430.01 47.03 452.92 38.44 476.30 C 55.94 476.16 73.44 476.52 90.93 476.12 C 82.01 452.90 72.51 429.90 64.61 406.31 Z" />
<path fill="#ffffff" opacity="1.00" d=" M 536.14 387.34 C 552.45 387.43 568.76 387.32 585.07 387.41 C 595.18 387.51 605.66 389.11 614.41 394.49 C 623.83 400.13 630.36 410.16 632.03 420.99 C 633.46 430.28 632.81 440.16 628.71 448.73 C 625.20 456.07 619.29 462.25 612.04 465.97 C 603.74 470.30 594.24 471.65 584.98 471.72 C 574.18 471.80 563.39 471.75 552.59 471.79 C 552.61 490.53 552.60 509.27 552.60 528.01 C 547.11 528.03 541.62 528.02 536.14 528.02 C 536.13 481.12 536.13 434.23 536.14 387.34 M 552.57 402.48 C 552.63 420.55 552.59 438.61 552.60 456.68 C 563.42 456.72 574.25 456.77 585.08 456.71 C 592.35 456.66 599.97 455.30 605.91 450.86 C 619.28 441.02 619.29 418.00 605.87 408.21 C 599.04 403.17 590.22 402.23 581.99 402.37 C 572.18 402.43 562.38 402.38 552.57 402.48 Z" />
<path fill="#ffffff" opacity="1.00" d=" M 831.17 387.34 C 836.35 387.36 841.53 387.35 846.72 387.36 C 846.74 434.24 846.72 481.12 846.73 528.00 C 842.04 528.03 837.35 528.04 832.67 527.97 C 832.40 523.71 832.06 519.46 831.81 515.20 C 824.40 522.78 814.57 528.11 803.98 529.40 C 790.16 531.37 775.36 527.50 765.02 517.92 C 744.21 499.10 744.45 462.06 765.76 443.70 C 783.84 427.56 814.28 428.90 831.10 446.29 C 831.12 426.64 831.19 406.99 831.17 387.34 M 789.34 447.61 C 784.84 448.81 780.70 451.13 777.18 454.17 C 765.70 463.92 762.88 481.19 768.02 494.93 C 771.32 503.54 778.27 510.79 787.01 513.92 C 793.79 516.28 801.32 516.40 808.23 514.44 C 817.71 511.65 825.35 503.97 828.82 494.80 C 831.41 487.94 831.78 480.35 830.46 473.17 C 828.63 463.34 822.20 454.40 813.26 449.83 C 805.93 446.13 797.23 445.57 789.34 447.61 Z" />
<path fill="#ffffff" opacity="1.00" d=" M 393.26 388.28 C 399.27 385.51 407.50 389.20 408.38 396.03 C 409.77 401.97 405.25 408.48 399.07 408.83 C 393.20 409.83 387.27 405.03 387.09 399.08 C 386.63 394.65 389.07 389.99 393.26 388.28 Z" />
<path fill="#ffffff" opacity="1.00" d=" M 325.67 410.74 C 330.81 410.81 335.94 410.77 341.08 410.79 C 341.09 418.59 341.11 426.39 341.07 434.19 C 349.58 434.23 358.10 434.20 366.62 434.22 C 366.61 438.94 366.62 443.67 366.59 448.40 C 358.09 448.37 349.59 448.41 341.09 448.38 C 341.07 464.93 341.08 481.48 341.08 498.02 C 341.07 503.47 342.05 509.79 346.86 513.13 C 352.69 517.03 360.38 516.18 366.68 513.93 C 366.57 518.42 366.60 522.92 366.61 527.41 C 358.26 530.53 348.70 530.88 340.38 527.52 C 334.23 525.01 329.66 519.49 327.62 513.25 C 326.06 508.67 325.60 503.81 325.63 499.00 C 325.62 482.13 325.57 465.26 325.57 448.40 C 320.40 448.38 315.23 448.41 310.05 448.37 C 310.12 443.64 310.10 438.92 310.09 434.20 C 315.26 434.22 320.43 434.22 325.61 434.20 C 325.59 426.38 325.47 418.56 325.67 410.74 Z" />
<path fill="#ffffff" opacity="1.00" d=" M 176.85 434.84 C 183.92 431.87 191.81 432.07 199.27 433.10 C 198.56 437.91 197.83 442.71 197.01 447.50 C 188.80 445.59 179.30 446.01 172.53 451.57 C 164.60 458.21 161.22 468.89 161.22 478.97 C 161.19 495.32 161.27 511.66 161.23 528.01 C 156.05 528.03 150.87 528.01 145.68 528.03 C 145.68 496.74 145.63 465.44 145.71 434.15 C 150.38 434.25 155.05 434.22 159.72 434.22 C 160.03 439.05 160.43 443.87 160.67 448.71 C 164.80 442.85 170.14 437.62 176.85 434.84 Z" />
<path fill="#ffffff" opacity="1.00" d=" M 223.38 445.33 C 241.87 427.56 274.26 428.23 292.41 446.17 C 288.79 449.75 285.19 453.34 281.59 456.94 C 270.56 444.37 249.44 442.82 236.73 453.69 C 221.03 466.47 220.46 493.06 234.93 506.98 C 247.40 519.52 269.99 518.44 281.63 505.28 C 285.19 508.90 288.92 512.34 292.32 516.10 C 274.13 534.12 241.60 534.67 223.18 516.72 C 203.63 498.37 203.72 463.56 223.38 445.33 Z" />
<path fill="#ffffff" opacity="1.00" d=" M 448.44 441.49 C 467.40 427.67 496.04 429.76 512.85 446.13 C 509.24 449.74 505.62 453.33 502.01 456.94 C 491.05 444.48 470.20 442.84 457.44 453.42 C 440.76 466.65 440.75 495.38 457.31 508.72 C 470.05 519.47 490.97 517.75 501.98 505.30 C 505.59 508.88 509.21 512.43 512.82 516.02 C 494.59 534.17 461.81 534.71 443.42 516.55 C 432.05 505.84 427.42 489.38 429.46 474.12 C 430.91 461.25 437.86 449.02 448.44 441.49 Z" />
<path fill="#ffffff" opacity="1.00" d=" M 654.93 441.53 C 665.71 435.84 677.70 431.84 690.03 432.42 C 699.65 432.55 709.50 435.72 716.50 442.52 C 724.21 449.81 727.95 460.52 728.03 471.00 C 728.18 490.00 728.06 509.01 728.09 528.01 C 723.42 528.02 718.75 528.02 714.08 528.02 C 713.77 523.53 713.51 519.04 713.23 514.56 C 708.78 520.54 702.78 525.46 695.62 527.78 C 686.52 530.67 676.45 530.59 667.39 527.57 C 658.61 524.50 650.94 517.39 648.59 508.22 C 646.54 499.98 647.43 490.60 652.63 483.66 C 657.67 476.76 665.70 472.66 673.90 470.86 C 686.73 468.11 700.13 469.49 712.64 473.14 C 712.76 466.03 711.01 458.37 705.72 453.29 C 701.08 448.63 694.43 446.55 687.96 446.47 C 678.25 446.20 668.91 449.79 660.59 454.54 C 658.69 450.20 656.77 445.88 654.93 441.53 M 667.79 489.79 C 663.08 494.02 662.29 501.51 665.15 507.00 C 667.40 511.12 671.67 513.79 676.14 514.94 C 687.42 517.67 700.47 514.03 707.60 504.58 C 711.57 499.75 712.91 493.38 712.69 487.25 C 703.45 484.31 693.67 482.89 684.00 483.71 C 678.22 484.28 672.19 485.80 667.79 489.79 Z" />
<path fill="#ffffff" opacity="1.00" d=" M 390.01 434.21 C 395.21 434.21 400.41 434.20 405.61 434.22 C 405.60 465.48 405.61 496.75 405.60 528.01 C 400.40 528.02 395.20 528.02 390.00 528.01 C 390.00 496.75 390.00 465.48 390.01 434.21 Z" />
</g>
</svg>
