<?xml version="1.0" encoding="UTF-8" ?>
<!DOCTYPE svg PUBLIC "-//W3C//DTD SVG 1.1//EN" "http://www.w3.org/Graphics/SVG/1.1/DTD/svg11.dtd">
<svg width="673pt" height="673pt" viewBox="0 0 673 673" version="1.1" xmlns="http://www.w3.org/2000/svg">
<g id="#415466ff">
<path fill="#415466" opacity="1.00" d=" M 99.39 0.00 L 573.56 0.00 C 594.36 0.81 614.89 7.91 631.55 20.43 C 656.37 38.71 672.04 68.57 673.00 99.39 L 673.00 573.56 C 672.25 594.15 665.29 614.48 653.01 631.05 C 634.73 656.17 604.63 672.09 573.55 673.00 L 99.43 673.00 C 78.39 672.23 57.61 664.97 40.85 652.18 C 16.35 633.85 0.98 604.17 0.00 573.60 L 0.00 99.43 C 0.93 73.65 11.82 48.35 30.19 30.20 C 48.33 11.83 73.61 0.94 99.39 0.00 M 468.91 27.10 C 466.28 32.33 466.54 38.55 468.30 44.00 C 402.40 43.97 336.51 44.04 270.61 43.97 C 221.00 93.45 171.44 143.00 121.97 192.62 C 122.05 338.41 121.97 484.21 122.00 630.00 C 128.01 630.00 134.01 630.00 140.01 630.00 C 139.99 635.33 140.00 640.66 140.01 646.00 C 282.00 646.00 424.00 646.00 565.99 645.99 C 566.00 450.66 566.00 255.33 565.99 60.00 C 560.66 60.00 555.33 59.99 550.00 60.01 C 550.00 54.67 550.00 49.34 550.00 44.00 C 535.98 44.00 521.96 43.99 507.94 44.01 C 506.27 37.99 506.61 31.31 503.20 25.87 C 500.07 20.50 494.31 16.66 488.06 16.30 C 480.24 15.46 472.32 20.07 468.91 27.10 Z" />
<path fill="#415466" opacity="1.00" d=" M 480.27 31.46 C 482.88 27.20 489.98 27.21 492.49 31.54 C 494.34 35.45 494.82 39.81 495.71 44.00 C 490.64 44.00 485.58 44.00 480.51 44.00 C 480.37 39.86 477.61 35.30 480.27 31.46 Z" />
</g>
<g id="#69c6bbff">
<path fill="#69c6bb" opacity="1.00" d=" M 468.91 27.10 C 472.32 20.07 480.24 15.46 488.06 16.30 C 494.31 16.66 500.07 20.50 503.20 25.87 C 506.61 31.31 506.27 37.99 507.94 44.01 C 512.70 67.68 517.39 91.37 522.17 115.03 C 523.08 124.23 521.59 134.20 515.47 141.49 C 507.40 151.62 492.33 155.03 480.62 149.55 C 472.34 145.80 465.93 138.07 464.29 129.07 C 460.49 107.71 456.54 86.37 452.74 65.01 C 451.96 62.02 453.32 58.55 456.35 57.49 C 459.91 55.94 464.08 58.85 464.47 62.57 C 468.44 84.03 472.19 105.55 476.20 127.01 C 477.32 134.13 484.03 139.40 490.99 140.10 C 498.07 140.89 505.38 136.83 508.45 130.40 C 511.11 125.34 510.09 119.43 509.70 113.98 C 505.05 90.65 500.37 67.33 495.71 44.00 C 494.82 39.81 494.34 35.45 492.49 31.54 C 489.98 27.21 482.88 27.20 480.27 31.46 C 477.61 35.30 480.37 39.86 480.51 44.00 C 484.15 62.68 487.95 81.32 491.46 100.02 C 492.29 103.73 488.72 107.48 484.99 106.90 C 482.02 106.72 479.92 103.97 479.55 101.18 C 475.78 82.13 472.08 63.06 468.30 44.00 C 466.54 38.55 466.28 32.33 468.91 27.10 Z" />
</g>
<g id="#d1dce6ff">
<path fill="#d1dce6" opacity="1.00" d=" M 121.97 192.62 C 171.44 143.00 221.00 93.45 270.61 43.97 C 270.90 46.63 271.09 49.31 271.06 51.99 C 270.93 98.97 271.16 145.96 270.94 192.94 C 223.64 193.10 176.34 192.93 129.04 193.03 C 126.67 193.05 124.32 192.86 121.97 192.62 Z" />
<path fill="#d1dce6" opacity="1.00" d=" M 550.00 60.01 C 555.33 59.99 560.66 60.00 565.99 60.00 C 566.00 255.33 566.00 450.66 565.99 645.99 C 424.00 646.00 282.00 646.00 140.01 646.00 C 140.00 640.66 139.99 635.33 140.01 630.00 C 276.65 629.97 413.30 630.06 549.94 629.95 C 550.07 439.97 549.97 249.99 550.00 60.01 Z" />
</g>
<g id="#fefefeff">
<path fill="#fefefe" opacity="1.00" d=" M 270.61 43.97 C 336.51 44.04 402.40 43.97 468.30 44.00 C 472.08 63.06 475.78 82.13 479.55 101.18 C 479.92 103.97 482.02 106.72 484.99 106.90 C 488.72 107.48 492.29 103.73 491.46 100.02 C 487.95 81.32 484.15 62.68 480.51 44.00 C 485.58 44.00 490.64 44.00 495.71 44.00 C 500.37 67.33 505.05 90.65 509.70 113.98 C 510.09 119.43 511.11 125.34 508.45 130.40 C 505.38 136.83 498.07 140.89 490.99 140.10 C 484.03 139.40 477.32 134.13 476.20 127.01 C 472.19 105.55 468.44 84.03 464.47 62.57 C 464.08 58.85 459.91 55.94 456.35 57.49 C 453.32 58.55 451.96 62.02 452.74 65.01 C 456.54 86.37 460.49 107.71 464.29 129.07 C 465.93 138.07 472.34 145.80 480.62 149.55 C 492.33 155.03 507.40 151.62 515.47 141.49 C 521.59 134.20 523.08 124.23 522.17 115.03 C 517.39 91.37 512.70 67.68 507.94 44.01 C 521.96 43.99 535.98 44.00 550.00 44.00 C 550.00 49.34 550.00 54.67 550.00 60.01 C 549.97 249.99 550.07 439.97 549.94 629.95 C 413.30 630.06 276.65 629.97 140.01 630.00 C 134.01 630.00 128.01 630.00 122.00 630.00 C 121.97 484.21 122.05 338.41 121.97 192.62 C 124.32 192.86 126.67 193.05 129.04 193.03 C 176.34 192.93 223.64 193.10 270.94 192.94 C 271.16 145.96 270.93 98.97 271.06 51.99 C 271.09 49.31 270.90 46.63 270.61 43.97 M 326.68 205.99 C 326.62 219.85 326.73 233.71 326.63 247.57 C 317.99 239.85 309.62 231.82 301.03 224.03 C 299.23 222.22 296.36 222.11 294.04 222.77 C 289.86 224.40 288.25 230.30 291.49 233.61 C 303.14 244.58 315.04 255.32 326.69 266.30 C 326.65 283.09 326.65 299.89 326.69 316.69 C 312.03 308.28 297.42 299.76 282.75 291.36 C 279.19 276.13 275.84 260.85 272.33 245.60 C 271.64 240.78 265.22 238.44 261.57 241.60 C 259.24 243.17 258.56 246.23 259.21 248.85 C 261.59 259.91 264.31 270.91 266.61 281.98 C 254.83 275.27 243.12 268.43 231.36 261.67 C 228.76 260.10 225.51 259.42 222.58 260.44 C 217.20 261.86 213.68 268.14 215.49 273.45 C 216.21 276.33 218.41 278.64 220.97 280.05 C 232.68 286.77 244.36 293.54 256.05 300.29 C 247.04 303.36 237.88 305.94 228.82 308.86 C 226.11 309.76 223.17 310.18 220.79 311.87 C 217.27 314.70 217.80 321.16 222.04 323.06 C 225.58 324.94 229.42 322.70 232.88 321.76 C 245.97 317.81 258.99 313.53 272.11 309.73 C 286.91 317.87 301.43 326.59 316.11 334.97 C 301.48 343.43 286.86 351.91 272.19 360.31 C 258.44 355.73 244.50 351.72 230.70 347.31 C 228.10 346.53 225.22 345.23 222.56 346.48 C 218.73 347.95 217.18 353.15 219.56 356.47 C 221.27 359.26 224.82 359.49 227.60 360.57 C 237.19 363.42 246.67 366.66 256.32 369.33 C 244.28 376.73 231.83 383.45 219.70 390.71 C 212.57 394.99 214.11 406.99 222.07 409.37 C 224.86 410.19 228.05 410.11 230.64 408.70 C 242.66 401.84 254.56 394.77 266.63 388.03 C 264.23 398.65 261.83 409.27 259.40 419.89 C 259.10 421.56 258.71 423.32 259.30 424.99 C 260.32 428.82 265.36 430.83 268.77 428.84 C 272.44 427.22 272.64 422.69 273.42 419.31 C 276.61 405.77 279.49 392.16 282.72 378.64 C 297.37 370.18 312.01 361.73 326.65 353.27 C 326.66 370.06 326.70 386.85 326.63 403.63 C 314.84 414.53 302.97 425.37 291.30 436.39 C 288.02 440.03 290.34 446.22 294.97 447.31 C 297.59 447.98 300.24 446.80 302.02 444.90 C 310.20 437.25 318.47 429.70 326.66 422.06 C 326.67 436.05 326.65 450.04 326.67 464.02 C 326.59 470.25 332.85 475.54 338.99 474.24 C 343.95 473.56 347.62 468.93 347.92 464.07 C 347.98 450.24 347.87 436.41 347.97 422.58 C 356.20 430.19 364.45 437.77 372.64 445.40 C 374.86 447.68 378.66 448.18 381.30 446.30 C 384.84 444.16 385.26 438.48 382.21 435.76 C 370.82 425.16 359.39 414.62 347.97 404.06 C 347.89 387.16 347.94 370.26 347.95 353.36 C 362.48 361.73 377.02 370.09 391.52 378.53 C 394.73 393.75 398.38 408.90 401.73 424.10 C 402.30 427.08 404.99 429.50 408.05 429.62 C 411.01 429.77 413.97 427.82 414.87 424.98 C 415.53 420.88 413.85 417.01 413.15 413.05 C 411.31 404.60 409.14 396.21 407.54 387.71 C 419.33 394.61 431.20 401.36 443.00 408.23 C 446.78 410.68 452.16 410.45 455.63 407.54 C 460.93 403.35 460.49 393.99 454.58 390.58 C 442.40 383.36 429.98 376.53 417.86 369.21 C 427.50 366.77 436.87 363.35 446.43 360.60 C 449.63 359.46 453.93 359.01 455.17 355.26 C 457.59 350.43 452.22 344.44 447.12 346.21 C 432.09 350.83 417.04 355.41 402.07 360.22 C 387.53 351.79 372.91 343.48 358.42 334.96 C 372.02 327.02 385.71 319.23 399.31 311.30 C 400.50 310.78 401.56 309.51 402.99 309.89 C 417.60 314.49 432.24 318.98 446.87 323.52 C 449.98 324.51 453.80 323.09 455.00 319.94 C 456.94 316.58 454.81 311.93 451.27 310.71 C 440.30 307.25 429.27 303.97 418.33 300.43 C 430.30 293.28 442.48 286.51 454.49 279.43 C 458.58 276.97 460.47 271.48 458.77 267.02 C 456.94 261.21 449.47 258.13 444.11 261.13 C 431.83 268.01 419.78 275.30 407.48 282.13 C 409.77 271.06 412.46 260.08 414.88 249.04 C 415.17 246.57 415.20 243.69 413.05 242.00 C 409.68 238.50 402.99 240.33 401.90 245.08 C 398.38 260.56 394.80 276.03 391.44 291.54 C 376.89 299.79 362.48 308.28 347.95 316.57 C 347.94 299.68 347.89 282.79 347.98 265.91 C 358.11 256.11 368.68 246.66 379.00 237.02 C 381.72 234.77 385.08 231.98 384.12 227.98 C 383.72 222.84 376.54 220.54 373.02 224.12 C 364.57 231.71 356.37 239.57 347.95 247.20 C 347.90 233.44 347.98 219.68 347.91 205.92 C 347.67 200.65 343.33 195.77 337.94 195.56 C 332.10 195.00 326.58 200.14 326.68 205.99 Z" />
</g>
<g id="#29b5e8ff">
<path fill="#29b5e8" opacity="1.00" d=" M 326.68 205.99 C 326.58 200.14 332.10 195.00 337.94 195.56 C 343.33 195.77 347.67 200.65 347.91 205.92 C 347.98 219.68 347.90 233.44 347.95 247.20 C 356.37 239.57 364.57 231.71 373.02 224.12 C 376.54 220.54 383.72 222.84 384.12 227.98 C 385.08 231.98 381.72 234.77 379.00 237.02 C 368.68 246.66 358.11 256.11 347.98 265.91 C 347.89 282.79 347.94 299.68 347.95 316.57 C 362.48 308.28 376.89 299.79 391.44 291.54 C 394.80 276.03 398.38 260.56 401.90 245.08 C 402.99 240.33 409.68 238.50 413.05 242.00 C 415.20 243.69 415.17 246.57 414.88 249.04 C 412.46 260.08 409.77 271.06 407.48 282.13 C 419.78 275.30 431.83 268.01 444.11 261.13 C 449.47 258.13 456.94 261.21 458.77 267.02 C 460.47 271.48 458.58 276.97 454.49 279.43 C 442.48 286.51 430.30 293.28 418.33 300.43 C 429.27 303.97 440.30 307.25 451.27 310.71 C 454.81 311.93 456.94 316.58 455.00 319.94 C 453.80 323.09 449.98 324.51 446.87 323.52 C 432.24 318.98 417.60 314.49 402.99 309.89 C 401.56 309.51 400.50 310.78 399.31 311.30 C 385.71 319.23 372.02 327.02 358.42 334.96 C 372.91 343.48 387.53 351.79 402.07 360.22 C 417.04 355.41 432.09 350.83 447.12 346.21 C 452.22 344.44 457.59 350.43 455.17 355.26 C 453.93 359.01 449.63 359.46 446.43 360.60 C 436.87 363.35 427.50 366.77 417.86 369.21 C 429.98 376.53 442.40 383.36 454.58 390.58 C 460.49 393.99 460.93 403.35 455.63 407.54 C 452.16 410.45 446.78 410.68 443.00 408.23 C 431.20 401.36 419.33 394.61 407.54 387.71 C 409.14 396.21 411.31 404.60 413.15 413.05 C 413.85 417.01 415.53 420.88 414.87 424.98 C 413.97 427.82 411.01 429.77 408.05 429.62 C 404.99 429.50 402.30 427.08 401.73 424.10 C 398.38 408.90 394.73 393.75 391.52 378.53 C 377.02 370.09 362.48 361.73 347.95 353.36 C 347.94 370.26 347.89 387.16 347.97 404.06 C 359.39 414.62 370.82 425.16 382.21 435.76 C 385.26 438.48 384.84 444.16 381.30 446.30 C 378.66 448.18 374.86 447.68 372.64 445.40 C 364.45 437.77 356.20 430.19 347.97 422.58 C 347.87 436.41 347.98 450.24 347.92 464.07 C 347.62 468.93 343.95 473.56 338.99 474.24 C 332.85 475.54 326.59 470.25 326.67 464.02 C 326.65 450.04 326.67 436.05 326.66 422.06 C 318.47 429.70 310.20 437.25 302.02 444.90 C 300.24 446.80 297.59 447.98 294.97 447.31 C 290.34 446.22 288.02 440.03 291.30 436.39 C 302.97 425.37 314.84 414.53 326.63 403.63 C 326.70 386.85 326.66 370.06 326.65 353.27 C 312.01 361.73 297.37 370.18 282.72 378.64 C 279.49 392.16 276.61 405.77 273.42 419.31 C 272.64 422.69 272.44 427.22 268.77 428.84 C 265.36 430.83 260.32 428.82 259.30 424.99 C 258.71 423.32 259.10 421.56 259.40 419.89 C 261.83 409.27 264.23 398.65 266.63 388.03 C 254.56 394.77 242.66 401.84 230.64 408.70 C 228.05 410.11 224.86 410.19 222.07 409.37 C 214.11 406.99 212.57 394.99 219.70 390.71 C 231.83 383.45 244.28 376.73 256.32 369.33 C 246.67 366.66 237.19 363.42 227.60 360.57 C 224.82 359.49 221.27 359.26 219.56 356.47 C 217.18 353.15 218.73 347.95 222.56 346.48 C 225.22 345.23 228.10 346.53 230.70 347.31 C 244.50 351.72 258.44 355.73 272.19 360.31 C 286.86 351.91 301.48 343.43 316.11 334.97 C 301.43 326.59 286.91 317.87 272.11 309.73 C 258.99 313.53 245.97 317.81 232.88 321.76 C 229.42 322.70 225.58 324.94 222.04 323.06 C 217.80 321.16 217.27 314.70 220.79 311.87 C 223.17 310.18 226.11 309.76 228.82 308.86 C 237.88 305.94 247.04 303.36 256.05 300.29 C 244.36 293.54 232.68 286.77 220.97 280.05 C 218.41 278.64 216.21 276.33 215.49 273.45 C 213.68 268.14 217.20 261.86 222.58 260.44 C 225.51 259.42 228.76 260.10 231.36 261.67 C 243.12 268.43 254.83 275.27 266.61 281.98 C 264.31 270.91 261.59 259.91 259.21 248.85 C 258.56 246.23 259.24 243.17 261.57 241.60 C 265.22 238.44 271.64 240.78 272.33 245.60 C 275.84 260.85 279.19 276.13 282.75 291.36 C 297.42 299.76 312.03 308.28 326.69 316.69 C 326.65 299.89 326.65 283.09 326.69 266.30 C 315.04 255.32 303.14 244.58 291.49 233.61 C 288.25 230.30 289.86 224.40 294.04 222.77 C 296.36 222.11 299.23 222.22 301.03 224.03 C 309.62 231.82 317.99 239.85 326.63 247.57 C 326.73 233.71 326.62 219.85 326.68 205.99 Z" />
</g>
</svg>
